<svg xmlns="http://www.w3.org/2000/svg" xmlns:xlink="http://www.w3.org/1999/xlink" viewBox="0 0 207.2 281.22"><defs><style>.cls-1{fill:none;}.cls-2{clip-path:url(#clip-path);}.cls-3{fill:#0e0e0e;fill-rule:evenodd;}.cls-4{clip-path:url(#clip-path-2);}</style><clipPath id="clip-path" transform="translate(0 0)"><rect class="cls-1" width="103.6" height="171.73"/></clipPath><clipPath id="clip-path-2" transform="translate(0 0)"><rect class="cls-1" x="103.6" width="103.6" height="171.73"/></clipPath></defs><g id="Capa_2" data-name="Capa 2"><g id="Capa_1-2" data-name="Capa 1"><g id="_Repetici贸n_de_espejo_" data-name="&lt;Repetici贸n de espejo&gt;"><g class="cls-2"><path class="cls-3" d="M70.1,151.73c-7.17-20.93-20-64-20-64s-9.47-36.08-10.5-54.5a25,25,0,0,1,1-9.91,4.9,4.9,0,0,1,7-2.75h0l.92.66c14.36,8,21.5,43.5,21.5,43.5l14.63,87Zm35,19c-52.55-.11-103.52,1-105,1,0-6.25-.2-12.12,0-18.38,16.67-.5,33.88-.79,50.55-.62-.86-6.79-4.5-20-4.5-20s-14.24-44.15-23-76a84.53,84.53,0,0,1,0-40Q29.25-2,48.6.23c6.48,1.63,12.79,7.12,18.08,13.23A84.31,84.31,0,0,1,84.2,46.92l4.68,17.5A142.65,142.65,0,0,1,92.33,81.3c2.29,16,7.21,50.63,9.77,70.43,1.28.08,2.16.11,2.83.11Z" transform="translate(0 0)"/></g></g><g id="_Repetici贸n_de_espejo_2" data-name="&lt;Repetici贸n de espejo&gt;"><g class="cls-4"><path class="cls-3" d="M137.1,151.73c7.17-20.93,20-64,20-64s9.47-36.08,10.5-54.5a25,25,0,0,0-1-9.91,4.9,4.9,0,0,0-7.05-2.75h0l-.92.66c-14.36,8-21.5,43.5-21.5,43.5l-14.63,87Zm-35,19c52.55-.11,103.52,1,105,1,0-6.25.2-12.12.05-18.38-16.67-.5-33.88-.79-50.55-.62.86-6.79,4.5-20,4.5-20s14.24-44.15,23-76a84.53,84.53,0,0,0,0-40Q178-2,158.6.23c-6.48,1.63-12.79,7.12-18.08,13.23A84.31,84.31,0,0,0,123,46.92l-4.68,17.5a146.79,146.79,0,0,0-3.45,16.88c-2.29,16-7.21,50.63-9.77,70.43-1.28.08-2.16.11-2.83.11Z" transform="translate(0 0)"/></g></g><path class="cls-3" d="M46,20.44l.19.13h0Z" transform="translate(0 0)"/><path class="cls-3" d="M47.1,21.23l-.92-.66A5.19,5.19,0,0,1,47.1,21.23Z" transform="translate(0 0)"/><path class="cls-3" d="M41.35,187.4q61-.18,121.91.47a7.6,7.6,0,0,1,7.26,6c3.6,15.81,12.62,59,16,78a7.73,7.73,0,0,1-7.36,9.22c-50.36.43-100.56-.09-150.93-.21-4.57,0-8.25-3.52-7.62-8.2,2.52-18.88,9.81-62.74,13.4-79.16A7.61,7.61,0,0,1,41.35,187.4Z" transform="translate(0 0)"/></g></g></svg>