<svg xmlns="http://www.w3.org/2000/svg" viewBox="0 0 487.29 198.23"><defs><style>.cls-1{fill:#0e0e0e;fill-rule:evenodd;}</style></defs><g id="Capa_2" data-name="Capa 2"><g id="Capa_1-2" data-name="Capa 1"><path class="cls-1" d="M484,190.67c1.78,1.29,2.95,2,3.21,3.89a2.87,2.87,0,0,1-3,3.48c-9.44-.06-37.34.3-54.47.15a3.8,3.8,0,0,1-3.5-3.49v-.08a3.44,3.44,0,0,1,2.31-3.49,18,18,0,0,0,2.59-1.06c5.17-3,9.29-5.16,11.13-10.71a3.37,3.37,0,0,0,.16-1q1.62-74.87,1-149.73A17.93,17.93,0,0,0,440.2,23c-2.92-2.92-7.14-4.15-10.61-6.35a3.32,3.32,0,0,1-1.53-2.21,8.58,8.58,0,0,1-.12-1.89,3.46,3.46,0,0,1,2.57-3.19Q448.9,4.52,467.46.1a3.3,3.3,0,0,1,2.37.28l.1.06a3.28,3.28,0,0,1,1.53,2.78q.24,10.33.47,20.65-1.57,75.82-.5,151.66a3,3,0,0,0,.07.67,18.65,18.65,0,0,0,10.42,13.18A12.77,12.77,0,0,1,484,190.67Z"/><path class="cls-1" d="M32,25q13.67,2.41,13.86,16.76a16.57,16.57,0,0,1-5.1,12.51,16,16,0,0,1-11.73,4A16.37,16.37,0,0,1,23,57Q10.78,51.67,12.52,38.84a16.11,16.11,0,0,1,3.41-8.08c.27-.32.55-.64.83-.94A16.72,16.72,0,0,1,32,25Z"/><path class="cls-1" d="M111.21,71.19a2.63,2.63,0,0,1,.69-.12c1.63-.08,3.87.22,4,2.11q.24,8.19,1.07,16.32c1.86,6,11.8-8.37,14.54-10,40.1-29.58,57,24.55,27.3,23.17a3.29,3.29,0,0,1-2-.8c-14.77-12.64-26.38-10-39.18,4.16a3.26,3.26,0,0,0-.85,2.16c-.45,23.82-.95,47.77.21,71.52a3.2,3.2,0,0,0,.42,1.48,20.92,20.92,0,0,0,15.13,10.71,1.43,1.43,0,0,1,.67.38,3.07,3.07,0,0,1,.93,1.87c.24,1.66,1.31,3.91-1,3.88-19.57-.28-38.61.31-59.34.12-1.37,0-2-1.38-2.16-2.68a3.3,3.3,0,0,1,1.72-3.27c6-3.25,11.93-5.74,14.36-13a3.51,3.51,0,0,0,.16-1c.69-26.26,1.76-52.73.73-78.89A3.24,3.24,0,0,0,88.3,98c-3-5.86-10.21-7-14.67-10.86a3.32,3.32,0,0,1-1.06-2c-.32-2-1-4.72,1.27-5.37A345.58,345.58,0,0,0,111.21,71.19Z"/><path class="cls-1" d="M284,165.47c-36.54,23.87-79.67,8.84-81.19-38.68,0-.62-.07-4.27-.07-4.27l4.38,0h78.4a4.3,4.3,0,0,0,4.3-4.47c-1.42-36.2-22.11-53.15-59.48-49.9-90.38,17.91-61.82,153,29.59,126.37q19.85-6.54,28.45-25.27C289.84,166.62,286.53,163.81,284,165.47ZM245.57,80.65c10,4.61,11.84,29.85,11.26,30.39a462.35,462.35,0,0,1-52.4-.5C205.61,89.19,225.47,71.85,245.57,80.65Z"/><path class="cls-1" d="M49.93,187q4.62,2.09,9.25,4a2.6,2.6,0,0,1,1.61,1.94,7.71,7.71,0,0,1-.12,3.14,2.66,2.66,0,0,1-2.55,2c-18.36.3-36.57.16-55,0a2.48,2.48,0,0,1-2-.94A5.33,5.33,0,0,1,0,193.73a2.78,2.78,0,0,1,2.4-2.56c13.53-1.77,14-11.9,14-12.26q.48-33.74,1.49-67.44a61.13,61.13,0,0,0-1.32-14.2,2.75,2.75,0,0,0-.77-1.39A45.26,45.26,0,0,0,2.75,87a2.73,2.73,0,0,1-1.6-2.11,25,25,0,0,1-.27-3.23A2.67,2.67,0,0,1,3,79q19.25-4,38.42-8.45a2.46,2.46,0,0,1,1,0h0a2.49,2.49,0,0,1,2,2.47q-.75,52.71,0,105.45C44.52,183,47.37,186.09,49.93,187Z"/><path class="cls-1" d="M414.86,181.87q-7.91,3.39-13-6a3.86,3.86,0,0,1-.44-1.76q-.5-39.3-1-78.58a4.36,4.36,0,0,0-.13-1C392.72,65.19,358.43,65.12,334.12,71l-.38.11c-40.3,13.38-26,53.73-3.56,36.93a4,4,0,0,0,1.52-2.42c3.05-15.92,8.19-31,27.94-27.13a5.29,5.29,0,0,1,.57.15c16.11,5.4,14.13,24,13.34,38.12a3.84,3.84,0,0,1-2.22,3.28c-13.55,6.15-29.41,8.75-43.4,14.51-64.88,28.7-3.2,91.3,40.49,49.16a3.89,3.89,0,0,1,5.92.62c12.34,18.17,40.57,13.87,45.52,2.71A3.88,3.88,0,0,0,414.86,181.87ZM372.43,167c-13.87,19.09-49.69,13.69-40-14,5.06-11.71,36.31-19.53,40.5-21Q373.19,149.53,372.43,167Z"/></g></g></svg>