<?xml version="1.0" encoding="UTF-8"?>
<!DOCTYPE svg PUBLIC "-//W3C//DTD SVG 1.1//EN" "http://www.w3.org/Graphics/SVG/1.1/DTD/svg11.dtd">
<svg xmlns="http://www.w3.org/2000/svg" version="1.1" width="1024px" height="1024px" style="shape-rendering:geometricPrecision; text-rendering:geometricPrecision; image-rendering:optimizeQuality; fill-rule:evenodd; clip-rule:evenodd" xmlns:xlink="http://www.w3.org/1999/xlink">
<g><path style="opacity:1" fill="#f9f5ee" d="M -0.5,-0.5 C 340.833,-0.5 682.167,-0.5 1023.5,-0.5C 1023.5,340.833 1023.5,682.167 1023.5,1023.5C 682.167,1023.5 340.833,1023.5 -0.5,1023.5C -0.5,682.167 -0.5,340.833 -0.5,-0.5 Z"/></g>
<g><path style="opacity:1" fill="#0e1110" d="M 629.5,591.5 C 634.943,592.467 636.61,595.634 634.5,601C 633.207,601.49 631.873,601.657 630.5,601.5C 611.821,601.833 593.155,601.5 574.5,600.5C 573.873,599.583 573.539,598.583 573.5,597.5C 573.351,596.448 573.517,595.448 574,594.5C 575.622,593.901 577.122,593.234 578.5,592.5C 584.419,591.083 588.252,587.416 590,581.5C 591.091,531.17 591.424,480.836 591,430.5C 590.293,428.919 589.46,427.419 588.5,426C 584.25,423.626 580.084,421.126 576,418.5C 575.333,416.5 575.333,414.5 576,412.5C 589.263,409.018 602.596,405.684 616,402.5C 617.261,402.759 618.261,403.426 619,404.5C 619.167,411.833 619.333,419.167 619.5,426.5C 618.446,477.164 618.28,527.83 619,578.5C 620.157,584.856 623.657,589.189 629.5,591.5 Z"/></g>
<g><path style="opacity:1" fill="#f6f5f3" d="M 629.5,591.5 C 623.657,589.189 620.157,584.856 619,578.5C 618.28,527.83 618.446,477.164 619.5,426.5C 619.333,419.167 619.167,411.833 619,404.5C 618.261,403.426 617.261,402.759 616,402.5C 602.596,405.684 589.263,409.018 576,412.5C 575.333,414.5 575.333,416.5 576,418.5C 580.084,421.126 584.25,423.626 588.5,426C 589.46,427.419 590.293,428.919 591,430.5C 591.424,480.836 591.091,531.17 590,581.5C 588.252,587.416 584.419,591.083 578.5,592.5C 576.801,592.66 575.134,592.494 573.5,592C 580.478,590.671 585.312,586.838 588,580.5C 588.795,530.833 589.129,481.167 589,431.5C 588.654,429.152 587.487,427.319 585.5,426C 581.497,424.833 577.83,422.999 574.5,420.5C 572.946,416.61 573.279,412.943 575.5,409.5C 589.065,406.12 602.731,403.12 616.5,400.5C 618.601,400.632 620.101,401.632 621,403.5C 621.167,407.5 621.333,411.5 621.5,415.5C 620.617,469.116 620.451,522.783 621,576.5C 621.827,582.649 624.994,587.149 630.5,590C 629.944,590.383 629.611,590.883 629.5,591.5 Z"/></g>
<g><path style="opacity:1" fill="#0f1110" d="M 172.5,429.5 C 188.351,429.182 195.184,436.849 193,452.5C 189.194,460.887 182.694,464.387 173.5,463C 161.794,459.232 157.627,451.399 161,439.5C 163.566,434.645 167.399,431.311 172.5,429.5 Z"/></g>
<g><path style="opacity:1" fill="#f4f4f2" d="M 808.5,332.5 C 797.495,348.981 789.661,366.981 785,386.5C 778.594,415.272 773.594,444.272 770,473.5C 767.667,474.833 765.333,474.833 763,473.5C 759.593,447.131 755.926,420.798 752,394.5C 747.919,376.339 741.585,359.005 733,342.5C 727.959,332.458 720.125,325.625 709.5,322C 696.605,320.541 688.105,326.041 684,338.5C 680.798,351.815 680.798,365.148 684,378.5C 689.849,404.38 697.515,429.713 707,454.5C 709.135,461.039 710.635,467.706 711.5,474.5C 694.83,474.333 678.163,474.5 661.5,475C 660.358,481.084 660.191,487.251 661,493.5C 661.5,494 662,494.5 662.5,495C 721.835,495.318 781.168,495.818 840.5,496.5C 851.741,496.495 862.907,496.161 874,495.5C 874.667,489.167 874.667,482.833 874,476.5C 873.5,476 873,475.5 872.5,475C 855.833,474.667 839.167,474.333 822.5,474C 822.043,473.586 821.709,473.086 821.5,472.5C 829.626,445.288 838.46,418.288 848,391.5C 851.192,376.313 852.192,360.979 851,345.5C 849.445,327.586 839.945,319.752 822.5,322C 817.447,324.225 813.114,327.392 809.5,331.5C 808.475,331.103 808.308,330.437 809,329.5C 815.142,321.517 823.309,318.017 833.5,319C 837.095,321.069 840.595,322.569 844,323.5C 848.728,329.336 851.728,336.003 853,343.5C 853.667,353.833 853.667,364.167 853,374.5C 850.985,387.511 847.985,400.511 844,413.5C 835.629,432.825 829.129,452.491 824.5,472.5C 840.17,472.333 855.837,472.5 871.5,473C 873.256,473.202 874.922,473.702 876.5,474.5C 877.166,481.341 877.332,488.341 877,495.5C 876.097,496.701 874.931,497.535 873.5,498C 802.835,497.93 732.168,497.597 661.5,497C 660.167,496 658.833,495 657.5,494C 657.983,488.722 658.483,482.888 659,476.5C 659.273,474.671 660.107,473.171 661.5,472C 677.163,471.5 692.83,471.333 708.5,471.5C 704.572,452.217 698.739,433.55 691,415.5C 688.77,407.087 686.437,398.754 684,390.5C 682.22,379.705 680.72,368.871 679.5,358C 680.213,351.486 681.047,344.986 682,338.5C 688.517,320.774 700.517,315.44 718,322.5C 723.203,327.042 728.37,331.542 733.5,336C 732.833,336.333 732.167,336.667 731.5,337C 738.173,347.353 743.506,358.353 747.5,370C 747.167,370.333 746.833,370.667 746.5,371C 749.055,372.258 749.722,374.091 748.5,376.5C 752.884,386.703 755.384,397.37 756,408.5C 756.333,408.167 756.667,407.833 757,407.5C 757.283,421.484 759.283,435.484 763,449.5C 763.548,456.835 764.048,464.169 764.5,471.5C 765.822,471.33 766.989,471.663 768,472.5C 772.036,441.571 777.37,410.905 784,380.5C 786.884,373.129 789.384,365.629 791.5,358C 794.818,350.607 798.651,343.44 803,336.5C 804.451,334.536 806.284,333.203 808.5,332.5 Z"/></g>
<g><path style="opacity:1" fill="#0e1110" d="M 808.5,332.5 C 809.167,332.5 809.5,332.167 809.5,331.5C 813.114,327.392 817.447,324.225 822.5,322C 839.945,319.752 849.445,327.586 851,345.5C 852.192,360.979 851.192,376.313 848,391.5C 838.46,418.288 829.626,445.288 821.5,472.5C 821.709,473.086 822.043,473.586 822.5,474C 839.167,474.333 855.833,474.667 872.5,475C 873,475.5 873.5,476 874,476.5C 874.667,482.833 874.667,489.167 874,495.5C 862.907,496.161 851.741,496.495 840.5,496.5C 781.168,495.818 721.835,495.318 662.5,495C 662,494.5 661.5,494 661,493.5C 660.191,487.251 660.358,481.084 661.5,475C 678.163,474.5 694.83,474.333 711.5,474.5C 710.635,467.706 709.135,461.039 707,454.5C 697.515,429.713 689.849,404.38 684,378.5C 680.798,365.148 680.798,351.815 684,338.5C 688.105,326.041 696.605,320.541 709.5,322C 720.125,325.625 727.959,332.458 733,342.5C 741.585,359.005 747.919,376.339 752,394.5C 755.926,420.798 759.593,447.131 763,473.5C 765.333,474.833 767.667,474.833 770,473.5C 773.594,444.272 778.594,415.272 785,386.5C 789.661,366.981 797.495,348.981 808.5,332.5 Z"/></g>
<g><path style="opacity:1" fill="#f8f4ee" d="M 827.5,340.5 C 828.833,340.5 830.167,340.5 831.5,340.5C 832.603,352.133 832.769,363.8 832,375.5C 825.873,398.549 818.539,421.216 810,443.5C 806.71,453.659 804.21,463.993 802.5,474.5C 798.167,474.5 793.833,474.5 789.5,474.5C 792.518,445.21 797.351,416.21 804,387.5C 808.267,373.018 814.267,359.352 822,346.5C 824.04,344.63 825.873,342.63 827.5,340.5 Z"/></g>
<g><path style="opacity:1" fill="#f8f4ee" d="M 703.5,340.5 C 705.783,340.608 707.783,341.441 709.5,343C 719.705,355.911 726.872,370.411 731,386.5C 736.038,414.397 740.538,442.397 744.5,470.5C 744.43,471.772 744.097,472.938 743.5,474C 739.245,474.796 735.079,474.629 731,473.5C 725.943,451.662 719.276,430.329 711,409.5C 704.929,391.811 701.429,373.644 700.5,355C 700.018,349.786 701.018,344.953 703.5,340.5 Z"/></g>
<g><path style="opacity:1" fill="#f4f3f1" d="M 259.5,471.5 C 262.788,471.073 265.788,471.74 268.5,473.5C 269.14,480.026 269.307,486.36 269,492.5C 272.47,488.358 275.97,484.192 279.5,480C 283.78,478.033 287.78,475.7 291.5,473C 300.487,470.436 309.153,471.102 317.5,475C 325.809,482.892 327.642,492.058 323,502.5C 322.667,502.167 322.333,501.833 322,501.5C 320.647,503.434 319.147,505.267 317.5,507C 315,507.375 312.667,508.208 310.5,509.5C 304.734,507.725 299.734,504.725 295.5,500.5C 290.448,497.861 285.448,498.027 280.5,501C 276.472,503.349 272.806,506.183 269.5,509.5C 268.954,533.686 268.787,558.019 269,582.5C 270.614,585.237 272.781,587.403 275.5,589C 279.915,589.765 283.915,591.432 287.5,594C 286.718,596.74 286.218,599.574 286,602.5C 264.906,603.66 243.74,603.826 222.5,603C 219.848,600.219 219.181,597.053 220.5,593.5C 226.923,591.048 232.09,587.048 236,581.5C 236.176,556.791 236.676,532.124 237.5,507.5C 235.766,500.034 231.099,495.201 223.5,493C 221.065,490.558 219.732,487.558 219.5,484C 220.34,482.233 221.673,480.899 223.5,480C 235.818,477.974 247.818,475.14 259.5,471.5 Z"/></g>
<g><path style="opacity:1" fill="#f0f0ed" d="M 193.5,584.5 C 192.732,583.737 192.232,582.737 192,581.5C 191.477,545.825 191.477,510.158 192,474.5C 191.275,473.941 190.442,473.608 189.5,473.5C 175.854,476.662 162.188,479.662 148.5,482.5C 148.337,484.857 148.503,487.19 149,489.5C 154.688,491.841 159.688,495.174 164,499.5C 165.114,504.391 165.614,509.391 165.5,514.5C 164.824,537.162 164.324,559.829 164,582.5C 160.941,589.562 155.608,593.562 148,594.5C 147.104,597.025 147.604,599.192 149.5,601C 168.833,601.667 188.167,601.667 207.5,601C 208.591,598.936 208.758,596.769 208,594.5C 204.491,593.077 200.991,591.577 197.5,590C 196.619,589.292 195.953,588.458 195.5,587.5C 195.369,586.761 195.536,586.094 196,585.5C 200.243,588.896 204.91,591.562 210,593.5C 211.227,597.591 210.394,601.091 207.5,604C 188.456,604.179 169.456,604.679 150.5,605.5C 145.267,601.933 144.267,597.433 147.5,592C 154,590.838 158.833,587.338 162,581.5C 162.667,554.5 162.667,527.5 162,500.5C 161.626,499.584 161.126,498.75 160.5,498C 155.203,496.145 150.703,493.645 147,490.5C 144.072,485.014 145.572,481.514 151.5,480C 162.107,477.342 172.774,474.676 183.5,472C 187.317,470.977 190.817,471.477 194,473.5C 194.561,507.881 194.061,542.214 192.5,576.5C 194.567,579.006 194.901,581.673 193.5,584.5 Z"/></g>
<g><path style="opacity:1" fill="#f4f3f2" d="M 407.5,600.5 C 421.163,596.002 430.83,587.169 436.5,574C 436.215,570.699 434.548,569.365 431.5,570C 416.055,582.713 398.721,586.046 379.5,580C 358.867,569.253 349.2,552.086 350.5,528.5C 379.5,528.5 408.5,528.5 437.5,528.5C 437.334,489.394 417.667,471.227 378.5,474C 338.713,483.375 320.213,508.541 323,549.5C 329.468,584.293 350.468,602.293 386,603.5C 392.971,603.338 399.804,602.338 406.5,600.5C 405.209,603.404 402.876,604.904 399.5,605C 381.31,606.95 364.31,603.95 348.5,596C 330.391,583.287 321.058,565.787 320.5,543.5C 321.336,497.819 345.169,473.486 392,470.5C 407.86,472.397 420.86,479.397 431,491.5C 433.862,497.752 436.528,504.085 439,510.5C 439.667,516.167 439.667,521.833 439,527.5C 438.535,528.931 437.701,530.097 436.5,531C 408.889,530.526 381.223,530.359 353.5,530.5C 352.886,544.302 356.719,556.636 365,567.5C 372.178,575.488 380.845,579.488 391,579.5C 393.667,580.167 396.333,580.833 399,581.5C 405.237,580.376 411.403,578.876 417.5,577C 423.112,573.869 428.446,570.369 433.5,566.5C 436.29,568.387 438.29,570.887 439.5,574C 437.715,576.866 436.715,579.7 436.5,582.5C 428.837,591.751 419.337,598.418 408,602.5C 407.536,601.906 407.369,601.239 407.5,600.5 Z"/></g>
<g><path style="opacity:1" fill="#faf9f7" d="M 682.5,599.5 C 739.168,599.667 795.834,599.5 852.5,599C 853.687,597.981 854.687,596.814 855.5,595.5C 848.845,567.213 842.345,538.88 836,510.5C 835.167,509.667 834.333,508.833 833.5,508C 788.501,507.5 743.501,507.333 698.5,507.5C 696.451,507.294 696.117,506.461 697.5,505C 743.173,504.348 788.84,504.682 834.5,506C 837.066,509.37 838.899,513.203 840,517.5C 842.862,531.938 845.862,546.271 849,560.5C 849.249,563.177 850.249,565.51 852,567.5C 853.559,576.557 855.392,585.557 857.5,594.5C 856.349,596.325 855.682,598.325 855.5,600.5C 797.526,601.821 739.526,601.821 681.5,600.5C 681.624,599.893 681.957,599.56 682.5,599.5 Z"/></g>
<g><path style="opacity:1" fill="#0d100f" d="M 261.5,473.5 C 263.144,473.286 264.644,473.62 266,474.5C 266.169,481.524 266.669,488.524 267.5,495.5C 272.319,491.182 276.985,486.682 281.5,482C 286.383,478.455 291.716,475.789 297.5,474C 315.233,471.411 323.733,478.911 323,496.5C 320.149,504.365 314.649,507.531 306.5,506C 303.5,503.667 300.5,501.333 297.5,499C 290.695,495.568 284.028,495.902 277.5,500C 274,502.833 270.5,505.667 267,508.5C 266.333,533.167 266.333,557.833 267,582.5C 270.523,589.437 276.189,593.437 284,594.5C 284.497,596.81 284.663,599.143 284.5,601.5C 263.924,601.827 243.424,601.493 223,600.5C 221.504,598.55 221.337,596.55 222.5,594.5C 229.854,592.599 235.021,588.266 238,581.5C 238.967,554.837 239.301,528.17 239,501.5C 237.542,499.04 235.709,496.873 233.5,495C 229.921,493.294 226.421,491.461 223,489.5C 222.503,487.19 222.337,484.857 222.5,482.5C 235.79,480.259 248.79,477.259 261.5,473.5 Z"/></g>
<g><path style="opacity:1" fill="#0e1110" d="M 698.5,507.5 C 743.501,507.333 788.501,507.5 833.5,508C 834.333,508.833 835.167,509.667 836,510.5C 842.345,538.88 848.845,567.213 855.5,595.5C 854.687,596.814 853.687,597.981 852.5,599C 795.834,599.5 739.168,599.667 682.5,599.5C 681.315,598.143 680.315,596.643 679.5,595C 683.946,571.823 688.446,548.657 693,525.5C 693.92,519.135 695.754,513.135 698.5,507.5 Z"/></g>
<g><path style="opacity:1" fill="#0e1110" d="M 407.5,600.5 C 407.167,600.5 406.833,600.5 406.5,600.5C 399.804,602.338 392.971,603.338 386,603.5C 350.468,602.293 329.468,584.293 323,549.5C 320.213,508.541 338.713,483.375 378.5,474C 417.667,471.227 437.334,489.394 437.5,528.5C 408.5,528.5 379.5,528.5 350.5,528.5C 349.2,552.086 358.867,569.253 379.5,580C 398.721,586.046 416.055,582.713 431.5,570C 434.548,569.365 436.215,570.699 436.5,574C 430.83,587.169 421.163,596.002 407.5,600.5 Z"/></g>
<g><path style="opacity:1" fill="#f6f2ec" d="M 378.5,483.5 C 398.852,484.362 408.019,495.029 406,515.5C 405.5,516 405,516.5 404.5,517C 386.926,517.825 369.426,517.658 352,516.5C 353.721,499.628 362.554,488.628 378.5,483.5 Z"/></g>
<g><path style="opacity:1" fill="#0d1110" d="M 193.5,584.5 C 193.427,586.027 194.094,587.027 195.5,587.5C 195.953,588.458 196.619,589.292 197.5,590C 200.991,591.577 204.491,593.077 208,594.5C 208.758,596.769 208.591,598.936 207.5,601C 188.167,601.667 168.833,601.667 149.5,601C 147.604,599.192 147.104,597.025 148,594.5C 155.608,593.562 160.941,589.562 164,582.5C 164.324,559.829 164.824,537.162 165.5,514.5C 165.614,509.391 165.114,504.391 164,499.5C 159.688,495.174 154.688,491.841 149,489.5C 148.503,487.19 148.337,484.857 148.5,482.5C 162.188,479.662 175.854,476.662 189.5,473.5C 190.442,473.608 191.275,473.941 192,474.5C 191.477,510.158 191.477,545.825 192,581.5C 192.232,582.737 192.732,583.737 193.5,584.5 Z"/></g>
<g><path style="opacity:1" fill="#f0f0ee" d="M 573.5,597.5 C 573.539,598.583 573.873,599.583 574.5,600.5C 593.155,601.5 611.821,601.833 630.5,601.5C 631.609,602.29 632.942,602.79 634.5,603C 633.584,603.374 632.75,603.874 632,604.5C 612.907,603.673 593.74,603.173 574.5,603C 571.731,601.311 570.064,598.811 569.5,595.5C 557.977,604.284 545.311,606.45 531.5,602C 526.685,598.352 522.352,594.185 518.5,589.5C 504.317,603.467 487.317,607.967 467.5,603C 448.876,595.181 442.042,581.348 447,561.5C 449.421,556.422 452.588,551.922 456.5,548C 461.51,544.493 466.843,541.493 472.5,539C 488.078,533.346 503.578,527.846 519,522.5C 519.876,513.77 519.542,505.104 518,496.5C 512.087,486.224 503.587,483.391 492.5,488C 488.961,489.907 486.461,492.74 485,496.5C 484.189,517.698 474.523,524.031 456,515.5C 451.969,505.471 453.135,496.137 459.5,487.5C 465.677,482.33 472.51,478.33 480,475.5C 480.765,475.57 481.265,475.903 481.5,476.5C 472.317,479.504 464.817,484.838 459,492.5C 453.623,501.103 454.456,508.936 461.5,516C 468.168,518.773 474.002,517.607 479,512.5C 480.536,505.354 482.536,498.354 485,491.5C 490.997,484.612 498.497,482.112 507.5,484C 514.835,486.67 519.335,491.837 521,499.5C 521.667,507.833 521.667,516.167 521,524.5C 520.5,525 520,525.5 519.5,526C 504.699,530.267 490.033,534.934 475.5,540C 465.373,543.639 457.207,549.805 451,558.5C 443.371,580.407 450.537,594.907 472.5,602C 491.349,605.329 507.016,599.829 519.5,585.5C 530.298,603.256 544.964,607.089 563.5,597C 568.513,593.915 569.679,589.748 567,584.5C 559.365,590.592 553.365,589.258 549,580.5C 548.667,553.833 548.333,527.167 548,500.5C 543.484,485.326 533.317,476.493 517.5,474C 505.619,472.773 493.952,473.606 482.5,476.5C 483.122,474.665 484.456,473.498 486.5,473C 501.907,469.212 516.907,470.212 531.5,476C 543.277,482.307 549.777,492.141 551,505.5C 551.333,530.833 551.667,556.167 552,581.5C 556.362,586.353 561.195,586.687 566.5,582.5C 567.736,583.246 569.07,583.579 570.5,583.5C 570.498,588.5 571.498,593.167 573.5,597.5 Z"/></g>
<g><path style="opacity:1" fill="#0d1010" d="M 481.5,476.5 C 481.833,476.5 482.167,476.5 482.5,476.5C 493.952,473.606 505.619,472.773 517.5,474C 533.317,476.493 543.484,485.326 548,500.5C 548.333,527.167 548.667,553.833 549,580.5C 553.365,589.258 559.365,590.592 567,584.5C 569.679,589.748 568.513,593.915 563.5,597C 544.964,607.089 530.298,603.256 519.5,585.5C 507.016,599.829 491.349,605.329 472.5,602C 450.537,594.907 443.371,580.407 451,558.5C 457.207,549.805 465.373,543.639 475.5,540C 490.033,534.934 504.699,530.267 519.5,526C 520,525.5 520.5,525 521,524.5C 521.667,516.167 521.667,507.833 521,499.5C 519.335,491.837 514.835,486.67 507.5,484C 498.497,482.112 490.997,484.612 485,491.5C 482.536,498.354 480.536,505.354 479,512.5C 474.002,517.607 468.168,518.773 461.5,516C 454.456,508.936 453.623,501.103 459,492.5C 464.817,484.838 472.317,479.504 481.5,476.5 Z"/></g>
<g><path style="opacity:1" fill="#f8f4ef" d="M 517.5,537.5 C 518.5,537.5 519.5,537.5 520.5,537.5C 520.667,549.171 520.5,560.838 520,572.5C 510.863,583.168 499.697,586.334 486.5,582C 478.656,575.779 476.489,567.946 480,558.5C 482.5,554.667 485.667,551.5 489.5,549C 498.663,544.454 507.996,540.62 517.5,537.5 Z"/></g>
</svg>
